<svg height="100px" version="1.1" viewBox="0 0 100 100" width="100px" xmlns="http://www.w3.org/2000/svg">
  <g fill="none" fill-rule="evenodd" id="80.-Sun" stroke="none" stroke-linecap="round" stroke-linejoin="round"
     stroke-width="1">
    <g stroke="#FF9F43" stroke-width="4" transform="translate(2.000000, 2.000000)">
      <path
        d="M48,9.74185501 L48,0 M65.923869,14.1931198 L70.4940307,5.59157234 M79.8011758,26.6001045 L87.7753698,21.012406 M86.3378676,44.0187629 L96,42.8315294 M84.1160527,62.508983 L93.2041719,66.0001516 M73.5796584,77.9029448 L80.0934397,85.1425539 M57.2293622,86.5475197 L59.5843977,96 M38.7706378,86.5475197 L36.4156023,96 M22.4203416,77.9029448 L15.9065603,85.1425539 M11.8839473,62.508983 L2.79582815,66.0001516 M9.66213241,44.0187629 L2.13162821e-14,42.8315294 M16.1988242,26.6001045 L8.2246302,21.012406 M30.076131,14.1931198 L25.5059693,5.59157234"
        id="Layer-1"></path>
      <circle cx="48" cy="48" id="Layer-2" r="20"></circle>
    </g>
  </g>
</svg>
